<svg width="50" height="40" viewBox="0 0 50 40" fill="none" xmlns="http://www.w3.org/2000/svg">
<rect x="0.5" y="0.5" width="49" height="39" rx="4.5" fill="white"/>
<rect x="0.5" y="0.5" width="49" height="39" rx="4.5" stroke="#C4C4CC"/>
<path d="M26.3287 26.87C19.593 32.6242 14.8099 33.0301 12.3603 30.5785C10.1033 28.3215 11.9752 22.6604 16.5368 17.0697L7.86914 8.40417H13.4081L22.0177 17.0138C16.5844 22.4803 13.4163 28.3008 15.0542 29.9386C16.4105 31.297 20.5848 29.4148 25.0884 25.6297L26.3287 26.87Z" fill="#B585FB"/>
<path d="M42.1296 31.5951H36.5907L27.9811 22.9855C33.4144 17.5211 36.5824 11.6985 34.9466 10.0627C33.5904 8.70439 29.4119 10.5887 24.9083 14.3738L23.668 13.1335C30.4058 7.37713 35.191 6.9692 37.6405 9.42082C39.8975 11.6778 38.0277 17.3389 33.4641 22.9296L42.1317 31.5951H42.1296Z" fill="#B585FB"/>
</svg>
